<svg xmlns="http://www.w3.org/2000/svg" width="42.865" height="56.495" viewBox="0 0 42.865 56.495">
  <path id="Icon_material-autorenew" data-name="Icon material-autorenew" d="M34.766,16.173v7.7L45.482,13.605,34.766,3.333v7.7c-11.841,0-21.432,9.193-21.432,20.543A19.755,19.755,0,0,0,16.655,42.52l3.911-3.749a14.581,14.581,0,0,1-1.875-7.19C18.691,23.081,25.9,16.173,34.766,16.173Zm18.11,4.468L48.965,24.39a14.947,14.947,0,0,1,1.875,7.19c0,8.5-7.207,15.408-16.074,15.408v-7.7L24.05,49.556,34.766,59.828v-7.7c11.841,0,21.432-9.193,21.432-20.543A19.755,19.755,0,0,0,52.876,20.641Z" transform="translate(-13.333 -3.333)" fill="#fff"/>
</svg>
