<svg xmlns="http://www.w3.org/2000/svg" width="49.598" height="51.038" viewBox="0 0 49.598 51.038">
  <path id="Icon_awesome-donate" data-name="Icon awesome-donate" d="M24.8,41.468c11.131,0,20.149-9.281,20.149-20.734S35.93,0,24.8,0,4.65,9.281,4.65,20.734,13.669,41.468,24.8,41.468ZM22.649,9.709V8.034A1.628,1.628,0,0,1,24.257,6.38h1.075A1.628,1.628,0,0,1,26.94,8.034V9.729a7.5,7.5,0,0,1,4.165,1.535,1.138,1.138,0,0,1,.116,1.7l-1.579,1.545a1.069,1.069,0,0,1-1.356.1,3.122,3.122,0,0,0-1.724-.508H22.794a1.716,1.716,0,0,0-1.579,1.824,1.8,1.8,0,0,0,1.172,1.754l6.035,1.864a6.229,6.229,0,0,1,4.233,5.991,6.072,6.072,0,0,1-5.725,6.22v1.675a1.628,1.628,0,0,1-1.608,1.655H24.247a1.628,1.628,0,0,1-1.608-1.655V31.739A7.5,7.5,0,0,1,18.473,30.2a1.138,1.138,0,0,1-.116-1.7l1.579-1.545a1.069,1.069,0,0,1,1.356-.1,3.122,3.122,0,0,0,1.724.508h3.768a1.716,1.716,0,0,0,1.579-1.824,1.8,1.8,0,0,0-1.172-1.754L21.157,21.92a6.229,6.229,0,0,1-4.233-5.991A6.079,6.079,0,0,1,22.649,9.709ZM46.5,35.089H43.35a23.7,23.7,0,0,1-7.072,6.38h6.18a.873.873,0,0,1,.93.8v1.595a.873.873,0,0,1-.93.8H7.13a.873.873,0,0,1-.93-.8V42.266a.873.873,0,0,1,.93-.8h6.18a23.817,23.817,0,0,1-7.072-6.38H3.1A3.142,3.142,0,0,0,0,38.278v9.57a3.142,3.142,0,0,0,3.1,3.19H46.5a3.142,3.142,0,0,0,3.1-3.19v-9.57A3.142,3.142,0,0,0,46.5,35.089Z" fill="#fff"/>
</svg>
